<svg width="16" height="20" viewBox="0 0 16 20" fill="none" xmlns="http://www.w3.org/2000/svg">
<path d="M12.8331 7.73324C12.8331 6.4779 12.3344 5.27399 11.4468 4.38633C10.5591 3.49868 9.35519 3 8.09985 3C6.84452 3 5.6406 3.49868 4.75295 4.38633C3.8653 5.27399 3.36662 6.4779 3.36662 7.73324C3.36662 13.2553 1 14.8331 1 14.8331H15.1997C15.1997 14.8331 12.8331 13.2553 12.8331 7.73324Z" stroke="black" stroke-linecap="round" stroke-linejoin="round"/>
<path d="M9.46461 17.9886C9.32591 18.2277 9.12684 18.4261 8.88733 18.5641C8.64782 18.7021 8.37626 18.7747 8.09986 18.7747C7.82345 18.7747 7.5519 18.7021 7.31238 18.5641C7.07287 18.4261 6.8738 18.2277 6.73511 17.9886" stroke="black" stroke-linecap="round" stroke-linejoin="round"/>
<circle cx="11.5" cy="4.5" r="4" fill="#F70F36" stroke="white"/>
</svg>
