<svg width="16" height="16" viewBox="0 0 16 16" fill="none" xmlns="http://www.w3.org/2000/svg">
<path d="M13.8182 5.82002H0.727273C0.534388 5.82002 0.349403 5.89679 0.213013 6.03343C0.0766231 6.17007 0 6.3554 0 6.54864V9.46313C0.00527741 11.1355 0.648165 12.7427 1.79716 13.956C2.94615 15.1692 4.51441 15.8968 6.18116 15.9898C7.8479 16.0829 9.48715 15.5345 10.7636 14.4567C12.0401 13.3789 12.8572 11.8532 13.048 10.1917H13.8182C14.3968 10.1917 14.9518 9.96145 15.361 9.55153C15.7701 9.1416 16 8.58561 16 8.00589C16 7.42616 15.7701 6.87017 15.361 6.46024C14.9518 6.05032 14.3968 5.82002 13.8182 5.82002ZM6.54545 14.5635C5.19573 14.5619 3.90174 14.0241 2.94734 13.0679C1.99294 12.1117 1.45609 10.8154 1.45455 9.46313V7.27726H11.6364V9.46313C11.6348 10.8154 11.098 12.1117 10.1436 13.0679C9.18917 14.0241 7.89517 14.5619 6.54545 14.5635ZM13.0909 8.73451V7.27726C13.3135 7.32754 14.5455 7.01059 14.5455 8.00589C14.5455 8.96912 13.2756 8.69298 13.0909 8.73451ZM1.66764 3.84764L2.57673 2.93686C2.30387 2.62516 2.14937 2.2271 2.14036 1.8126C2.13957 1.61555 2.17772 1.4203 2.25261 1.2381C2.32751 1.05589 2.43766 0.890345 2.57673 0.750999L3.12218 0.204533C3.25935 0.0718084 3.44306 -0.00163256 3.63375 2.75438e-05C3.82443 0.00168765 4.00684 0.0783159 4.14169 0.213408C4.27653 0.348501 4.35302 0.531248 4.35467 0.72229C4.35633 0.913333 4.28302 1.09738 4.15055 1.2348L3.60509 1.78127C3.879 2.09256 4.03455 2.49067 4.04436 2.90553C4.04516 3.10258 4.00701 3.29783 3.93211 3.48004C3.85722 3.66224 3.74706 3.82779 3.608 3.96713L2.69891 4.87791C2.56254 5.01492 2.37743 5.09205 2.1843 5.09232C1.99117 5.09259 1.80585 5.01599 1.66909 4.87937C1.53234 4.74275 1.45535 4.55729 1.45508 4.36381C1.45481 4.17032 1.53127 3.98465 1.66764 3.84764ZM5.304 3.84764L6.21309 2.93686C5.94023 2.62516 5.78573 2.2271 5.77673 1.8126C5.77593 1.61555 5.81408 1.4203 5.88898 1.2381C5.96387 1.05589 6.07403 0.890345 6.21309 0.750999L6.75855 0.204533C6.89571 0.0718084 7.07942 -0.00163256 7.27011 2.75438e-05C7.4608 0.00168765 7.64321 0.0783159 7.77805 0.213408C7.91289 0.348501 7.98938 0.531248 7.99104 0.72229C7.99269 0.913333 7.91939 1.09738 7.78691 1.2348L7.24145 1.78127C7.51537 2.09256 7.67092 2.49067 7.68073 2.90553C7.68152 3.10258 7.64337 3.29783 7.56848 3.48004C7.49358 3.66224 7.38343 3.82779 7.24436 3.96713L6.33527 4.87791C6.1989 5.01492 6.01379 5.09205 5.82066 5.09232C5.62754 5.09259 5.44221 5.01599 5.30545 4.87937C5.1687 4.74275 5.09172 4.55729 5.09145 4.36381C5.09117 4.17032 5.16763 3.98465 5.304 3.84764ZM8.94036 3.84764L9.84945 2.93686C9.5766 2.62516 9.42209 2.2271 9.41309 1.8126C9.4123 1.61555 9.45045 1.4203 9.52534 1.2381C9.60023 1.05589 9.71039 0.890345 9.84945 0.750999L10.3949 0.204533C10.5321 0.0718084 10.7158 -0.00163256 10.9065 2.75438e-05C11.0972 0.00168765 11.2796 0.0783159 11.4144 0.213408C11.5493 0.348501 11.6257 0.531248 11.6274 0.72229C11.6291 0.913333 11.5558 1.09738 11.4233 1.2348L10.8778 1.78127C11.1517 2.09256 11.3073 2.49067 11.3171 2.90553C11.3179 3.10258 11.2797 3.29783 11.2048 3.48004C11.1299 3.66224 11.0198 3.82779 10.8807 3.96713L9.97164 4.87791C9.83447 5.01064 9.65076 5.08408 9.46007 5.08242C9.26938 5.08076 9.08697 5.00413 8.95213 4.86904C8.81729 4.73394 8.7408 4.5512 8.73915 4.36015C8.73749 4.16911 8.81079 3.98506 8.94327 3.84764H8.94036Z" fill="#CBCBCB"/>
</svg>
