<svg width="22" height="22" viewBox="0 0 22 22" fill="none" xmlns="http://www.w3.org/2000/svg">
<rect width="22" height="22" rx="6" fill="#F70F36"/>
<path d="M14.4399 10.8143C14.3049 10.6381 14.1405 10.4855 13.9879 10.3328C13.5945 9.98057 13.1483 9.72812 12.7726 9.35824C11.8978 8.50107 11.704 7.08614 12.2618 6C11.704 6.13503 11.2167 6.44033 10.7999 6.77498C9.27929 7.99616 8.68045 10.1508 9.39671 12.0002C9.4202 12.0589 9.44368 12.1176 9.44368 12.194C9.44368 12.3231 9.35562 12.4405 9.2382 12.4875C9.10316 12.5462 8.96226 12.511 8.85071 12.4171C8.81718 12.3893 8.78928 12.3555 8.76851 12.3172C8.10508 11.4777 7.9994 10.2741 8.4456 9.31127C7.46514 10.1097 6.93087 11.4601 7.0072 12.7341C7.04242 13.0276 7.07765 13.3212 7.17746 13.6148C7.25965 13.967 7.41817 14.3193 7.5943 14.6304C8.22837 15.6461 9.32626 16.3741 10.5063 16.5209C11.7627 16.6794 13.1072 16.4505 14.0701 15.5816C15.1445 14.607 15.5202 13.0453 14.9683 11.7067L14.892 11.554C14.7687 11.2839 14.4399 10.8143 14.4399 10.8143ZM12.5847 14.513C12.4203 14.6539 12.1502 14.8066 11.9389 14.8653C11.2813 15.1001 10.6238 14.7713 10.2363 14.3839C10.9349 14.2195 11.3518 13.7028 11.4751 13.1803C11.5749 12.7106 11.387 12.3231 11.3107 11.871C11.2402 11.4366 11.252 11.0667 11.4105 10.6616C11.522 10.8847 11.6395 11.1078 11.7804 11.2839C12.2324 11.871 12.9428 12.1294 13.0955 12.9278C13.119 13.01 13.1307 13.0922 13.1307 13.1803C13.1483 13.6617 12.937 14.1901 12.5847 14.513Z" fill="white"/>
</svg>
