<svg width="20" height="20" viewBox="0 0 20 20" fill="none" xmlns="http://www.w3.org/2000/svg">
<path d="M1.66665 10C1.66665 14.6025 5.39748 18.3333 9.99998 18.3333C14.6025 18.3333 18.3333 14.6025 18.3333 10C18.3343 8.70613 18.0335 7.42985 17.4549 6.27257C16.8762 5.11529 16.0357 4.1089 15 3.33335L15 5.59168C15.8485 6.55399 16.4013 7.7407 16.5921 9.00942C16.7829 10.2781 16.6036 11.575 16.0756 12.7443C15.5477 13.9136 14.6935 14.9057 13.6157 15.6016C12.5378 16.2975 11.282 16.6676 9.99906 16.6675C8.71607 16.6674 7.46037 16.2971 6.38263 15.601C5.30489 14.9049 4.4509 13.9127 3.92313 12.7433C3.39536 11.5739 3.21623 10.277 3.40724 9.00832C3.59825 7.73963 4.15129 6.55301 4.99998 5.59084L4.99998 3.33251C3.96418 4.10815 3.12356 5.11467 2.54491 6.27211C1.96626 7.42955 1.66554 8.70599 1.66665 10ZM6.66665 4.16668H9.16665V10.8333H10.8333L10.8333 4.16668H13.3333L9.99998 1.14441e-05L6.66665 4.16668Z" fill="black"/>
</svg>
